<?xml version="1.0" encoding="UTF-8" standalone="no"?>
<!-- Created with Inkscape (http://www.inkscape.org/) -->

<svg
   xmlns:dc="http://purl.org/dc/elements/1.1/"
   xmlns:cc="http://creativecommons.org/ns#"
   xmlns:rdf="http://www.w3.org/1999/02/22-rdf-syntax-ns#"
   xmlns:svg="http://www.w3.org/2000/svg"
   xmlns="http://www.w3.org/2000/svg"
   xmlns:sodipodi="http://sodipodi.sourceforge.net/DTD/sodipodi-0.dtd"
   xmlns:inkscape="http://www.inkscape.org/namespaces/inkscape"
   width="58.737221mm"
   height="45.448437mm"
   viewBox="0 0 58.737221 45.448437"
   version="1.1"
   id="svg19736"
   inkscape:version="0.92.3 (2405546, 2018-03-11)">
  <defs
     id="defs19730" />
  <sodipodi:namedview
     id="base"
     pagecolor="#ffffff"
     bordercolor="#666666"
     borderopacity="1.0"
     inkscape:pageopacity="0.0"
     inkscape:pageshadow="2"
     inkscape:zoom="2.2140974"
     inkscape:cx="117.56708"
     inkscape:cy="165.16945"
     inkscape:document-units="mm"
     inkscape:current-layer="layer1"
     showgrid="false"
     fit-margin-top="0"
     fit-margin-left="0"
     fit-margin-right="0"
     fit-margin-bottom="0"
     inkscape:window-width="1920"
     inkscape:window-height="1017"
     inkscape:window-x="-8"
     inkscape:window-y="-8"
     inkscape:window-maximized="1" />
  <metadata
     id="metadata19733">
    <rdf:RDF>
      <cc:Work
         rdf:about="">
        <dc:format>image/svg+xml</dc:format>
        <dc:type
           rdf:resource="http://purl.org/dc/dcmitype/StillImage" />
        <dc:title></dc:title>
      </cc:Work>
    </rdf:RDF>
  </metadata>
  <g
     inkscape:label="Layer 1"
     inkscape:groupmode="layer"
     id="layer1"
     transform="translate(-158.86354,-207.284)">
    <text
       id="text14636"
       y="217.15247"
       x="158.18619"
       style="font-style:normal;font-variant:normal;font-weight:normal;font-stretch:normal;font-size:12.9874506px;line-height:1.25;font-family:'Franklin Gothic Medium';-inkscape-font-specification:'Franklin Gothic Medium, ';letter-spacing:0px;word-spacing:0px;fill:#ffffff;fill-opacity:1;stroke:#4f6128;stroke-width:0.46354532;stroke-miterlimit:4;stroke-dasharray:none;stroke-opacity:1"
       xml:space="preserve"><tspan
         style="font-style:normal;font-variant:normal;font-weight:800;font-stretch:normal;font-family:Montserrat;-inkscape-font-specification:'Montserrat Ultra-Bold';fill:#ffffff;fill-opacity:1;stroke:#4f6128;stroke-width:0.46354532;stroke-miterlimit:4;stroke-dasharray:none;stroke-opacity:1"
         y="217.15247"
         x="158.18619"
         id="tspan14634"
         sodipodi:role="line">BusL<tspan
   id="tspan14632"
   style="fill:#ffffff;fill-opacity:1;stroke:#4f6128;stroke-width:0.46354532;stroke-miterlimit:4;stroke-dasharray:none;stroke-opacity:1">o</tspan>ad</tspan></text>
    <ellipse
       ry="4.2355466"
       rx="4.2930832"
       cy="213.64784"
       cx="196.48067"
       id="ellipse14638"
       style="opacity:1;fill:#af263d;fill-opacity:1;stroke:none;stroke-width:0.04519488;stroke-linecap:butt;stroke-linejoin:round;stroke-miterlimit:4;stroke-dasharray:none;stroke-opacity:1;paint-order:markers fill stroke" />
    <g
       id="g14650"
       transform="matrix(0.01127678,0,0,0.01243708,192.43707,184.04686)">
      <path
         id="path14640"
         d="m 178.5266,2549.9122 c 33.02385,-0.8746 37.80933,-1.3807 52.5,-5.5524 11.07316,-3.1445 12.59842,-3.8374 17.84167,-8.1047 2.93792,-2.3911 5.72009,-4.3475 6.18261,-4.3475 0.46252,0 1.14682,-1.0125 1.52068,-2.25 0.37385,-1.2375 1.698,-3.375 2.94254,-4.75 3.04188,-3.3607 7.10329,-13.9588 8.55936,-22.3353 3.73813,-21.5049 -8.02769,-37.0965 -30.76137,-40.7638 -4.00702,-0.6464 -7.28549,-1.5101 -7.28549,-1.9194 0,-0.4092 2.08015,-1.2679 4.62256,-1.908 16.13628,-4.0632 26.87508,-16.3105 29.2853,-33.399 2.97421,-21.0872 -7.29698,-33.9591 -31.00243,-38.8523 -7.68056,-1.5854 -102.61024,-1.3111 -104.55479,0.3021 -0.63216,0.5245 -1.45388,4.6485 -1.82606,9.1646 -0.89408,10.8492 -11.10161,116.2561 -13.02159,134.4662 -0.82664,7.8403 -1.50298,15.8278 -1.50298,17.75 v 3.4949 l 16.74999,-0.061 c 9.2125,-0.033 31.6,-0.454 49.75,-0.9347 z"
         style="fill:#f9f9f9;fill-opacity:1"
         inkscape:connector-curvature="0" />
      <path
         id="path14642"
         d="m 160.01907,2526.2619 c -0.0422,-4.7904 4.34838,-48.4045 5.04393,-50.1043 0.90669,-2.2157 1.19456,-2.25 18.89294,-2.25 24.97802,0 31.22555,1.6977 36.88661,10.0238 2.17097,3.193 2.33452,4.2921 2.00728,13.4899 -0.31019,8.7188 -0.70723,10.6126 -3.07013,14.6446 -3.50555,5.9818 -7.34802,9.149 -14.4875,11.9414 -5.11156,1.9993 -8.00601,2.3035 -25.5156,2.682 -10.8625,0.2349 -19.75339,0.043 -19.75753,-0.4274 z"
         style="fill:#af263d;fill-opacity:1"
         inkscape:connector-curvature="0" />
      <path
         id="path14644"
         d="m 167.03667,2450.2419 c 0.006,-0.4589 0.90458,-10.2571 1.99787,-21.774 1.29566,-13.6486 2.42378,-21.241 3.23993,-21.8051 0.68867,-0.4759 8.7431,-0.7003 17.89873,-0.4986 15.2867,0.3369 17.03345,0.566 21.38201,2.8051 6.27751,3.2323 8.47445,7.3664 8.46162,15.9227 -0.007,4.7496 -0.64885,7.8708 -2.36765,11.5156 -2.85673,6.0578 -5.57961,8.6818 -12.13504,11.6943 -4.44141,2.041 -6.82163,2.3293 -21.73754,2.6331 -9.2125,0.1877 -16.74547,-0.034 -16.73993,-0.4931 z"
         style="fill:#af263d;fill-opacity:1"
         inkscape:connector-curvature="0" />
      <path
         id="path14646"
         d="m 401.5266,2547.4241 c 23.97683,-2.9323 39.71283,-5.3292 40.54792,-6.1762 0.85103,-0.8632 2.09512,-15.6403 6.51132,-77.3403 4.0826,-57.0392 4.0807,-56.9802 1.84057,-57.1107 -8.08937,-0.4714 -41.13047,0.4893 -42.02223,1.2218 -0.61733,0.5071 -1.41112,3.9521 -1.76396,7.6555 -0.81817,8.5873 -5.10127,64.2427 -6.73751,87.5485 -1.14091,16.2505 -1.4319,17.9174 -3.31343,18.9801 -1.34151,0.7577 -8.00635,1.172 -19.06268,1.1849 -19.4126,0.023 -24.22615,-1.1263 -29.39885,-7.0177 -6.11378,-6.9632 -6.24274,-10.7867 -2.10115,-62.2965 3.31971,-41.2879 3.46805,-44.7586 1.953,-45.6949 -0.57584,-0.3559 -10.48277,-0.3207 -22.01539,0.078 -20.22953,0.6997 -20.98564,0.7997 -21.45779,2.838 -0.52935,2.2853 -5.98951,65.7505 -7.06448,82.1128 -2.22515,33.8694 11.88553,50.5204 47.05669,55.5281 8.64674,1.2311 41.78348,0.3528 57.02797,-1.5116 z"
         style="fill:#f9f9f9;fill-opacity:1"
         inkscape:connector-curvature="0" />
      <path
         id="path14648"
         d="m 529.0266,2547.9225 c 40.52349,-2.6382 63.71045,-17.3604 68.06043,-43.214 2.63705,-15.673 -4.43557,-27.9684 -20.7855,-36.1344 -3.72621,-1.861 -13.29993,-5.5357 -21.27493,-8.1658 -24.15351,-7.9657 -30,-11.811 -30,-19.7313 0,-8.2689 5.94801,-13.0141 18.70974,-14.9262 4.11498,-0.6165 15.3334,-0.7632 28.47405,-0.3723 25.00618,0.7439 22.45102,1.8247 25.37866,-10.7348 1.18447,-5.0813 1.47047,-8.1032 0.82773,-8.7459 -1.69336,-1.6934 -21.18681,-4.0235 -38.89018,-4.6487 -40.68239,-1.4366 -67.87158,8.4488 -77.60231,28.2148 -4.27927,8.6924 -4.96797,17.6347 -1.96964,25.5744 4.28155,11.3377 15.1696,18.6377 41.57195,27.8723 23.37876,8.177 29.47311,13.52 28.51203,24.997 -0.36315,4.3366 -3.32762,8.0076 -8.50417,10.5309 -8.24067,4.017 -14.12313,4.6211 -41.70755,4.2836 -16.84309,-0.2061 -26.05753,0.043 -26.73806,0.7236 -0.57111,0.5709 -1.15625,5.732 -1.30032,11.469 l -0.26193,10.431 5.5,0.832 c 5.58662,0.8451 24.80291,2.3385 33,2.5646 2.475,0.068 11.025,-0.3007 19,-0.8198 z"
         style="fill:#f9f9f9;fill-opacity:1"
         inkscape:connector-curvature="0" />
    </g>
    <path
       style="opacity:1;fill:#f9f9f9;fill-opacity:1;stroke:none;stroke-width:0.04865576;stroke-linecap:butt;stroke-linejoin:round;stroke-miterlimit:4;stroke-dasharray:none;stroke-opacity:1;paint-order:markers fill stroke"
       d="m 196.45668,209.24866 a 4.4300921,4.75725 0 0 0 -4.1889,3.2239 h 8.37684 a 4.4300921,4.75725 0 0 0 -4.18794,-3.2239 z m -0.76431,9.43847 a 4.4300921,4.75725 0 0 0 0.76431,0.076 4.4300921,4.75725 0 0 0 0.78119,-0.076 z"
       id="path14652"
       inkscape:connector-curvature="0" />
    <rect
       style="opacity:1;fill:#af263d;fill-opacity:1;stroke:none;stroke-width:0.13097684;stroke-linecap:butt;stroke-linejoin:round;stroke-miterlimit:4;stroke-dasharray:none;stroke-opacity:1;paint-order:markers fill stroke"
       id="rect14654"
       width="1.7460961"
       height="32.116829"
       x="195.63684"
       y="220.61562" />
    <rect
       style="opacity:1;fill:#af263d;fill-opacity:1;stroke:none;stroke-width:0.04451946;stroke-linecap:butt;stroke-linejoin:round;stroke-miterlimit:4;stroke-dasharray:none;stroke-opacity:1;paint-order:markers fill stroke"
       id="rect14656"
       width="2.545296"
       height="3.3570518"
       x="195.20119"
       y="217.71049" />
  </g>
</svg>
