<?xml version="1.0" encoding="UTF-8" standalone="no"?>
<svg
   xmlns:dc="http://purl.org/dc/elements/1.1/"
   xmlns:cc="http://creativecommons.org/ns#"
   xmlns:rdf="http://www.w3.org/1999/02/22-rdf-syntax-ns#"
   xmlns:svg="http://www.w3.org/2000/svg"
   xmlns="http://www.w3.org/2000/svg"
   id="svg12734"
   version="1.1"
   viewBox="0 0 591.9444 284.79611"
   height="284.79611mm"
   width="591.9444mm">
  <defs
     id="defs12728" />
  <metadata
     id="metadata12731">
    <rdf:RDF>
      <cc:Work
         rdf:about="">
        <dc:format>image/svg+xml</dc:format>
        <dc:type
           rdf:resource="http://purl.org/dc/dcmitype/StillImage" />
        <dc:title></dc:title>
      </cc:Work>
    </rdf:RDF>
  </metadata>
  <g
     transform="translate(296.72838,-177.69481)"
     id="layer1">
    <ellipse
       ry="23.109467"
       rx="23.423395"
       cy="303.95856"
       cx="66.597214"
       id="ellipse849"
       style="opacity:1;fill:#af263d;fill-opacity:1;stroke:none;stroke-width:0.76899999;stroke-linecap:butt;stroke-linejoin:round;stroke-miterlimit:4;stroke-dasharray:none;stroke-opacity:1;paint-order:markers fill stroke" />
    <g
       id="g13714">
      <rect
         y="320.44672"
         x="59.504963"
         height="16.697235"
         width="13.962343"
         id="rect845"
         style="opacity:1;fill:#af263d;fill-opacity:1;stroke:none;stroke-width:0.76899999;stroke-linecap:butt;stroke-linejoin:round;stroke-miterlimit:4;stroke-dasharray:none;stroke-opacity:1;paint-order:markers fill stroke" />
      <g
         style="stroke:#ffffff;stroke-width:12.49858093;stroke-miterlimit:4;stroke-dasharray:none;stroke-opacity:1"
         transform="matrix(0.06152698,0,0,0.06152698,44.205989,155.3008)"
         id="g1145">
        <path
           style="fill:#f9f9f9;fill-opacity:1;stroke:#ffffff;stroke-width:12.49858093;stroke-miterlimit:4;stroke-dasharray:none;stroke-opacity:1"
           d="m 178.5266,2549.9122 c 33.02385,-0.8746 37.80933,-1.3807 52.5,-5.5524 11.07316,-3.1445 12.59842,-3.8374 17.84167,-8.1047 2.93792,-2.3911 5.72009,-4.3475 6.18261,-4.3475 0.46252,0 1.14682,-1.0125 1.52068,-2.25 0.37385,-1.2375 1.698,-3.375 2.94254,-4.75 3.04188,-3.3607 7.10329,-13.9588 8.55936,-22.3353 3.73813,-21.5049 -8.02769,-37.0965 -30.76137,-40.7638 -4.00702,-0.6464 -7.28549,-1.5101 -7.28549,-1.9194 0,-0.4092 2.08015,-1.2679 4.62256,-1.908 16.13628,-4.0632 26.87508,-16.3105 29.2853,-33.399 2.97421,-21.0872 -7.29698,-33.9591 -31.00243,-38.8523 -7.68056,-1.5854 -102.61024,-1.3111 -104.55479,0.3021 -0.63216,0.5245 -1.45388,4.6485 -1.82606,9.1646 -0.89408,10.8492 -11.10161,116.2561 -13.02159,134.4662 -0.82664,7.8403 -1.50298,15.8278 -1.50298,17.75 v 3.4949 l 16.74999,-0.061 c 9.2125,-0.033 31.6,-0.454 49.75,-0.9347 z"
           id="path1050" />
        <path
           style="fill:#af263d;fill-opacity:1;stroke:#ffffff;stroke-width:12.49858093;stroke-miterlimit:4;stroke-dasharray:none;stroke-opacity:1"
           d="m 160.01907,2526.2619 c -0.0422,-4.7904 4.34838,-48.4045 5.04393,-50.1043 0.90669,-2.2157 1.19456,-2.25 18.89294,-2.25 24.97802,0 31.22555,1.6977 36.88661,10.0238 2.17097,3.193 2.33452,4.2921 2.00728,13.4899 -0.31019,8.7188 -0.70723,10.6126 -3.07013,14.6446 -3.50555,5.9818 -7.34802,9.149 -14.4875,11.9414 -5.11156,1.9993 -8.00601,2.3035 -25.5156,2.682 -10.8625,0.2349 -19.75339,0.043 -19.75753,-0.4274 z"
           id="path1048" />
        <path
           style="fill:#af263d;fill-opacity:1;stroke:#ffffff;stroke-width:12.49858093;stroke-miterlimit:4;stroke-dasharray:none;stroke-opacity:1"
           d="m 167.03667,2450.2419 c 0.006,-0.4589 0.90458,-10.2571 1.99787,-21.774 1.29566,-13.6486 2.42378,-21.241 3.23993,-21.8051 0.68867,-0.4759 8.7431,-0.7003 17.89873,-0.4986 15.2867,0.3369 17.03345,0.566 21.38201,2.8051 6.27751,3.2323 8.47445,7.3664 8.46162,15.9227 -0.007,4.7496 -0.64885,7.8708 -2.36765,11.5156 -2.85673,6.0578 -5.57961,8.6818 -12.13504,11.6943 -4.44141,2.041 -6.82163,2.3293 -21.73754,2.6331 -9.2125,0.1877 -16.74547,-0.034 -16.73993,-0.4931 z"
           id="path1046" />
        <path
           style="fill:#f9f9f9;fill-opacity:1;stroke:#ffffff;stroke-width:12.49858093;stroke-miterlimit:4;stroke-dasharray:none;stroke-opacity:1"
           d="m 401.5266,2547.4241 c 23.97683,-2.9323 39.71283,-5.3292 40.54792,-6.1762 0.85103,-0.8632 2.09512,-15.6403 6.51132,-77.3403 4.0826,-57.0392 4.0807,-56.9802 1.84057,-57.1107 -8.08937,-0.4714 -41.13047,0.4893 -42.02223,1.2218 -0.61733,0.5071 -1.41112,3.9521 -1.76396,7.6555 -0.81817,8.5873 -5.10127,64.2427 -6.73751,87.5485 -1.14091,16.2505 -1.4319,17.9174 -3.31343,18.9801 -1.34151,0.7577 -8.00635,1.172 -19.06268,1.1849 -19.4126,0.023 -24.22615,-1.1263 -29.39885,-7.0177 -6.11378,-6.9632 -6.24274,-10.7867 -2.10115,-62.2965 3.31971,-41.2879 3.46805,-44.7586 1.953,-45.6949 -0.57584,-0.3559 -10.48277,-0.3207 -22.01539,0.078 -20.22953,0.6997 -20.98564,0.7997 -21.45779,2.838 -0.52935,2.2853 -5.98951,65.7505 -7.06448,82.1128 -2.22515,33.8694 11.88553,50.5204 47.05669,55.5281 8.64674,1.2311 41.78348,0.3528 57.02797,-1.5116 z"
           id="path1044" />
        <path
           style="fill:#f9f9f9;fill-opacity:1;stroke:#ffffff;stroke-width:12.49858093;stroke-miterlimit:4;stroke-dasharray:none;stroke-opacity:1"
           d="m 529.0266,2547.9225 c 40.52349,-2.6382 63.71045,-17.3604 68.06043,-43.214 2.63705,-15.673 -4.43557,-27.9684 -20.7855,-36.1344 -3.72621,-1.861 -13.29993,-5.5357 -21.27493,-8.1658 -24.15351,-7.9657 -30,-11.811 -30,-19.7313 0,-8.2689 5.94801,-13.0141 18.70974,-14.9262 4.11498,-0.6165 15.3334,-0.7632 28.47405,-0.3723 25.00618,0.7439 22.45102,1.8247 25.37866,-10.7348 1.18447,-5.0813 1.47047,-8.1032 0.82773,-8.7459 -1.69336,-1.6934 -21.18681,-4.0235 -38.89018,-4.6487 -40.68239,-1.4366 -67.87158,8.4488 -77.60231,28.2148 -4.27927,8.6924 -4.96797,17.6347 -1.96964,25.5744 4.28155,11.3377 15.1696,18.6377 41.57195,27.8723 23.37876,8.177 29.47311,13.52 28.51203,24.997 -0.36315,4.3366 -3.32762,8.0076 -8.50417,10.5309 -8.24067,4.017 -14.12313,4.6211 -41.70755,4.2836 -16.84309,-0.2061 -26.05753,0.043 -26.73806,0.7236 -0.57111,0.5709 -1.15625,5.732 -1.30032,11.469 l -0.26193,10.431 5.5,0.832 c 5.58662,0.8451 24.80291,2.3385 33,2.5646 2.475,0.068 11.025,-0.3007 19,-0.8198 z"
           id="path1042" />
      </g>
      <path
         id="path841"
         d="m 66.340169,280.39359 a 23.95626,24.777349 0 0 0 -22.651871,16.7912 h 45.298721 a 23.95626,24.777349 0 0 0 -22.64685,-16.7912 z m -4.132994,49.15873 a 23.95626,24.777349 0 0 0 4.132994,0.39593 23.95626,24.777349 0 0 0 4.224448,-0.39593 z"
         style="opacity:1;fill:#f9f9f9;fill-opacity:0.94117647;stroke:none;stroke-width:0.79257321;stroke-linecap:butt;stroke-linejoin:round;stroke-miterlimit:4;stroke-dasharray:none;stroke-opacity:1;paint-order:markers fill stroke" />
      <rect
         y="334.87244"
         x="61.565868"
         height="129.18121"
         width="9.5782919"
         id="rect843"
         style="opacity:1;fill:#af263d;fill-opacity:1;stroke:none;stroke-width:0.76899999;stroke-linecap:butt;stroke-linejoin:round;stroke-miterlimit:4;stroke-dasharray:none;stroke-opacity:1;paint-order:markers fill stroke" />
    </g>
    <path
       d="m -115.71916,296.33387 q 4.66905,1.63417 7.31484,5.13596 2.64579,3.42396 2.64579,8.32646 0,7.1592 -5.75848,11.05007 -5.7585,3.89087 -16.65294,3.89087 h -29.41498 v -54.47219 h 27.85864 q 10.42753,0 15.87475,3.89087 5.44722,3.81305 5.44722,10.34972 0,3.89087 -1.94543,7.00357 -1.86762,3.03487 -5.36941,4.82467 z m -26.61356,-14.94094 v 10.50535 h 10.58318 q 7.78174,0 7.78174,-5.29159 0,-5.21376 -7.78174,-5.21376 z m 12.9177,32.21641 q 8.09301,0 8.09301,-5.52503 0,-5.52504 -8.09301,-5.52504 h -12.9177 v 11.05007 z"
       style="font-style:normal;font-variant:normal;font-weight:800;font-stretch:normal;font-size:medium;line-height:1.25;font-family:Montserrat;-inkscape-font-specification:'Montserrat Ultra-Bold';letter-spacing:0px;word-spacing:0px;fill:none;fill-opacity:1;stroke:#ffffff;stroke-width:2.769;stroke-miterlimit:4;stroke-dasharray:none;stroke-opacity:1"
       id="path13535" />
    <path
       d="m -54.046421,282.56019 v 42.17704 h -14.084953 v -4.51341 q -2.334523,2.56798 -5.602854,3.89087 -3.26833,1.3229 -6.92575,1.3229 -8.17083,0 -13.073326,-4.82468 -4.824681,-4.82468 -4.824681,-14.47404 v -23.57868 h 14.78531 v 21.16634 q 0,4.74686 1.789799,6.92575 1.789799,2.17889 5.213769,2.17889 3.501783,0 5.680671,-2.41234 2.256705,-2.49016 2.256705,-7.54829 v -20.31035 z"
       style="font-style:normal;font-variant:normal;font-weight:800;font-stretch:normal;font-size:medium;line-height:1.25;font-family:Montserrat;-inkscape-font-specification:'Montserrat Ultra-Bold';letter-spacing:0px;word-spacing:0px;fill:none;fill-opacity:1;stroke:#ffffff;stroke-width:2.769;stroke-miterlimit:4;stroke-dasharray:none;stroke-opacity:1"
       id="path13537" />
    <path
       d="m -29.26887,325.43759 q -5.291584,0 -10.427534,-1.16726 -5.13595,-1.24508 -8.248647,-3.19052 l 4.435593,-10.11626 q 2.879245,1.7898 6.847934,2.87924 3.968688,1.01163 7.859558,1.01163 3.579602,0 5.058133,-0.70036 1.556348,-0.77817 1.556348,-2.17888 0,-1.40072 -1.867618,-1.94544 -1.789801,-0.62254 -5.758489,-1.16726 -5.058132,-0.62254 -8.637733,-1.63417 -3.501784,-1.01162 -6.069759,-3.73523 -2.567975,-2.72361 -2.567975,-7.62611 0,-4.04651 2.41234,-7.1592 2.41234,-3.19052 7.003568,-4.98031 4.669045,-1.86763 11.127891,-1.86763 4.591228,0 9.104638,0.93381 4.513411,0.93382 7.5482901,2.64579 l -4.4355931,10.03845 q -5.602854,-3.11269 -12.139518,-3.11269 -3.501784,0 -5.13595,0.85598 -1.634165,0.77818 -1.634165,2.10108 0,1.47853 1.7898,2.10107 1.789801,0.54472 5.914124,1.16726 5.213767,0.77817 8.637734,1.7898 3.423967,1.01162 5.914124,3.73523 2.5679751,2.6458 2.5679751,7.47048 0,3.96869 -2.4123401,7.1592 -2.41234,3.11269 -7.159203,4.9025 -4.669045,1.7898 -11.283526,1.7898 z"
       style="font-style:normal;font-variant:normal;font-weight:800;font-stretch:normal;font-size:medium;line-height:1.25;font-family:Montserrat;-inkscape-font-specification:'Montserrat Ultra-Bold';letter-spacing:0px;word-spacing:0px;fill:none;fill-opacity:1;stroke:#ffffff;stroke-width:2.769;stroke-miterlimit:4;stroke-dasharray:none;stroke-opacity:1"
       id="path13539" />
    <path
       d="M -1.3421388,270.26504 H 14.06571 v 42.25485 h 25.991018 v 12.21734 H -1.3421388 Z"
       style="font-style:normal;font-variant:normal;font-weight:800;font-stretch:normal;font-size:medium;line-height:1.25;font-family:Montserrat;-inkscape-font-specification:'Montserrat Ultra-Bold';letter-spacing:0px;word-spacing:0px;fill:none;fill-opacity:1;stroke:#ffffff;stroke-width:2.769;stroke-miterlimit:4;stroke-dasharray:none;stroke-opacity:1"
       id="path13541" />
    <path
       d="m 114.11703,281.85983 q 10.50535,0 16.03038,4.82469 5.52505,4.74686 5.52505,14.62967 v 23.42304 h -13.77369 v -5.44722 q -3.19051,6.14758 -12.45079,6.14758 -4.90249,0 -8.4821,-1.71198 -3.579597,-1.71199 -5.447219,-4.59123 -1.789799,-2.95707 -1.789799,-6.6923 0,-5.99194 4.591231,-9.26027 4.591227,-3.34615 14.162777,-3.34615 h 8.40428 q -0.38909,-6.6923 -8.94901,-6.6923 -3.03488,0 -6.14758,1.01163 -3.11269,0.93381 -5.29158,2.64579 l -4.980319,-10.03845 q 3.501784,-2.33452 8.482099,-3.5796 5.05814,-1.3229 10.11627,-1.3229 z m -0.54473,34.23967 q 2.56798,0 4.51341,-1.24508 1.94544,-1.24508 2.80144,-3.65742 v -3.65742 h -6.38103 q -6.45885,0 -6.45885,4.27996 0,1.94544 1.47853,3.1127 1.47853,1.16726 4.0465,1.16726 z"
       style="font-style:normal;font-variant:normal;font-weight:800;font-stretch:normal;font-size:medium;line-height:1.25;font-family:Montserrat;-inkscape-font-specification:'Montserrat Ultra-Bold';letter-spacing:0px;word-spacing:0px;fill:none;fill-opacity:1;stroke:#ffffff;stroke-width:2.769;stroke-miterlimit:4;stroke-dasharray:none;stroke-opacity:1"
       id="path13545" />
    <path
       d="m 190.51185,266.99671 v 57.74052 H 176.4269 v -4.20214 q -4.12432,4.9025 -12.37297,4.9025 -5.75849,0 -10.50535,-2.64579 -4.74687,-2.72361 -7.54829,-7.70392 -2.72361,-4.98032 -2.72361,-11.51698 0,-6.53667 2.72361,-11.43916 2.80142,-4.98032 7.54829,-7.62611 4.74686,-2.6458 10.50535,-2.6458 7.54829,0 11.67261,4.35778 v -19.2209 z m -23.34523,46.69045 q 3.81306,0 6.30322,-2.64579 2.49016,-2.72361 2.49016,-7.47047 0,-4.66905 -2.49016,-7.31484 -2.41235,-2.6458 -6.30322,-2.6458 -3.89087,0 -6.38102,2.6458 -2.49016,2.64579 -2.49016,7.31484 0,4.74686 2.49016,7.47047 2.49015,2.64579 6.38102,2.64579 z"
       style="font-style:normal;font-variant:normal;font-weight:800;font-stretch:normal;font-size:medium;line-height:1.25;font-family:Montserrat;-inkscape-font-specification:'Montserrat Ultra-Bold';letter-spacing:0px;word-spacing:0px;fill:none;fill-opacity:1;stroke:#ffffff;stroke-width:2.769;stroke-miterlimit:4;stroke-dasharray:none;stroke-opacity:1"
       id="path13547" />
  </g>
</svg>
