<?xml version="1.0" encoding="UTF-8" standalone="no"?>
<svg
   xmlns:dc="http://purl.org/dc/elements/1.1/"
   xmlns:cc="http://creativecommons.org/ns#"
   xmlns:rdf="http://www.w3.org/1999/02/22-rdf-syntax-ns#"
   xmlns:svg="http://www.w3.org/2000/svg"
   xmlns="http://www.w3.org/2000/svg"
   id="svg12734"
   version="1.1"
   viewBox="0 0 194.16136 215.62971"
   height="215.62971mm"
   width="194.16136mm">
  <defs
     id="defs12728" />
  <metadata
     id="metadata12731">
    <rdf:RDF>
      <cc:Work
         rdf:about="">
        <dc:format>image/svg+xml</dc:format>
        <dc:type
           rdf:resource="http://purl.org/dc/dcmitype/StillImage" />
        <dc:title></dc:title>
      </cc:Work>
    </rdf:RDF>
  </metadata>
  <g
     transform="translate(120.83928,-189.73263)"
     id="layer1">
    <g
       id="g13954"
       transform="matrix(0.26458333,0,0,0.26458333,-266.99794,104.89805)">
      <text
         xml:space="preserve"
         style="font-style:normal;font-variant:normal;font-weight:normal;font-stretch:normal;font-size:162.67047119px;line-height:1.25;font-family:'Franklin Gothic Medium';-inkscape-font-specification:'Franklin Gothic Medium, ';letter-spacing:0px;word-spacing:0px;fill:#000000;fill-opacity:1;stroke:none;stroke-width:1.90629435"
         x="544.97229"
         y="574.0011"
         id="text893"><tspan
           id="tspan891"
           x="544.97229"
           y="574.0011"
           style="font-style:normal;font-variant:normal;font-weight:800;font-stretch:normal;font-family:Montserrat;-inkscape-font-specification:'Montserrat Ultra-Bold';fill:#ffffff;stroke-width:1.90629435">BusL<tspan
   style="fill:#ffffff;fill-opacity:0;stroke-width:1.90629435"
   id="tspan895">o</tspan>ad</tspan></text>
      <g
         id="g13894"
         transform="translate(0.23556021,1.9045378)">
        <ellipse
           ry="47.108734"
           rx="47.748672"
           cy="527.84143"
           cx="1029.8103"
           id="ellipse849"
           style="opacity:1;fill:#af263d;fill-opacity:1;stroke:none;stroke-width:0.50266796;stroke-linecap:butt;stroke-linejoin:round;stroke-miterlimit:4;stroke-dasharray:none;stroke-opacity:1;paint-order:markers fill stroke" />
        <g
           id="g13881">
          <g
             transform="matrix(0.12542298,0,0,0.12542298,984.83641,224.85028)"
             id="g1145">
            <path
               style="fill:#f9f9f9;fill-opacity:1"
               d="m 178.5266,2549.9122 c 33.02385,-0.8746 37.80933,-1.3807 52.5,-5.5524 11.07316,-3.1445 12.59842,-3.8374 17.84167,-8.1047 2.93792,-2.3911 5.72009,-4.3475 6.18261,-4.3475 0.46252,0 1.14682,-1.0125 1.52068,-2.25 0.37385,-1.2375 1.698,-3.375 2.94254,-4.75 3.04188,-3.3607 7.10329,-13.9588 8.55936,-22.3353 3.73813,-21.5049 -8.02769,-37.0965 -30.76137,-40.7638 -4.00702,-0.6464 -7.28549,-1.5101 -7.28549,-1.9194 0,-0.4092 2.08015,-1.2679 4.62256,-1.908 16.13628,-4.0632 26.87508,-16.3105 29.2853,-33.399 2.97421,-21.0872 -7.29698,-33.9591 -31.00243,-38.8523 -7.68056,-1.5854 -102.61024,-1.3111 -104.55479,0.3021 -0.63216,0.5245 -1.45388,4.6485 -1.82606,9.1646 -0.89408,10.8492 -11.10161,116.2561 -13.02159,134.4662 -0.82664,7.8403 -1.50298,15.8278 -1.50298,17.75 v 3.4949 l 16.74999,-0.061 c 9.2125,-0.033 31.6,-0.454 49.75,-0.9347 z"
               id="path1050" />
            <path
               style="fill:#af263d;fill-opacity:1"
               d="m 160.01907,2526.2619 c -0.0422,-4.7904 4.34838,-48.4045 5.04393,-50.1043 0.90669,-2.2157 1.19456,-2.25 18.89294,-2.25 24.97802,0 31.22555,1.6977 36.88661,10.0238 2.17097,3.193 2.33452,4.2921 2.00728,13.4899 -0.31019,8.7188 -0.70723,10.6126 -3.07013,14.6446 -3.50555,5.9818 -7.34802,9.149 -14.4875,11.9414 -5.11156,1.9993 -8.00601,2.3035 -25.5156,2.682 -10.8625,0.2349 -19.75339,0.043 -19.75753,-0.4274 z"
               id="path1048" />
            <path
               style="fill:#af263d;fill-opacity:1"
               d="m 167.03667,2450.2419 c 0.006,-0.4589 0.90458,-10.2571 1.99787,-21.774 1.29566,-13.6486 2.42378,-21.241 3.23993,-21.8051 0.68867,-0.4759 8.7431,-0.7003 17.89873,-0.4986 15.2867,0.3369 17.03345,0.566 21.38201,2.8051 6.27751,3.2323 8.47445,7.3664 8.46162,15.9227 -0.007,4.7496 -0.64885,7.8708 -2.36765,11.5156 -2.85673,6.0578 -5.57961,8.6818 -12.13504,11.6943 -4.44141,2.041 -6.82163,2.3293 -21.73754,2.6331 -9.2125,0.1877 -16.74547,-0.034 -16.73993,-0.4931 z"
               id="path1046" />
            <path
               style="fill:#f9f9f9;fill-opacity:1"
               d="m 401.5266,2547.4241 c 23.97683,-2.9323 39.71283,-5.3292 40.54792,-6.1762 0.85103,-0.8632 2.09512,-15.6403 6.51132,-77.3403 4.0826,-57.0392 4.0807,-56.9802 1.84057,-57.1107 -8.08937,-0.4714 -41.13047,0.4893 -42.02223,1.2218 -0.61733,0.5071 -1.41112,3.9521 -1.76396,7.6555 -0.81817,8.5873 -5.10127,64.2427 -6.73751,87.5485 -1.14091,16.2505 -1.4319,17.9174 -3.31343,18.9801 -1.34151,0.7577 -8.00635,1.172 -19.06268,1.1849 -19.4126,0.023 -24.22615,-1.1263 -29.39885,-7.0177 -6.11378,-6.9632 -6.24274,-10.7867 -2.10115,-62.2965 3.31971,-41.2879 3.46805,-44.7586 1.953,-45.6949 -0.57584,-0.3559 -10.48277,-0.3207 -22.01539,0.078 -20.22953,0.6997 -20.98564,0.7997 -21.45779,2.838 -0.52935,2.2853 -5.98951,65.7505 -7.06448,82.1128 -2.22515,33.8694 11.88553,50.5204 47.05669,55.5281 8.64674,1.2311 41.78348,0.3528 57.02797,-1.5116 z"
               id="path1044" />
            <path
               style="fill:#f9f9f9;fill-opacity:1"
               d="m 529.0266,2547.9225 c 40.52349,-2.6382 63.71045,-17.3604 68.06043,-43.214 2.63705,-15.673 -4.43557,-27.9684 -20.7855,-36.1344 -3.72621,-1.861 -13.29993,-5.5357 -21.27493,-8.1658 -24.15351,-7.9657 -30,-11.811 -30,-19.7313 0,-8.2689 5.94801,-13.0141 18.70974,-14.9262 4.11498,-0.6165 15.3334,-0.7632 28.47405,-0.3723 25.00618,0.7439 22.45102,1.8247 25.37866,-10.7348 1.18447,-5.0813 1.47047,-8.1032 0.82773,-8.7459 -1.69336,-1.6934 -21.18681,-4.0235 -38.89018,-4.6487 -40.68239,-1.4366 -67.87158,8.4488 -77.60231,28.2148 -4.27927,8.6924 -4.96797,17.6347 -1.96964,25.5744 4.28155,11.3377 15.1696,18.6377 41.57195,27.8723 23.37876,8.177 29.47311,13.52 28.51203,24.997 -0.36315,4.3366 -3.32762,8.0076 -8.50417,10.5309 -8.24067,4.017 -14.12313,4.6211 -41.70755,4.2836 -16.84309,-0.2061 -26.05753,0.043 -26.73806,0.7236 -0.57111,0.5709 -1.15625,5.732 -1.30032,11.469 l -0.26193,10.431 5.5,0.832 c 5.58662,0.8451 24.80291,2.3385 33,2.5646 2.475,0.068 11.025,-0.3007 19,-0.8198 z"
               id="path1042" />
          </g>
          <path
             id="path841"
             d="m 1029.9571,479.85239 a 48.834923,47.548874 0 0 0 -46.17601,32.22307 h 92.34161 a 48.834923,47.548874 0 0 0 -46.1656,-32.22307 z m -8.4253,94.33785 a 48.834923,47.548874 0 0 0 8.4253,0.75982 48.834923,47.548874 0 0 0 8.6115,-0.75982 z"
             style="opacity:1;fill:#f9f9f9;fill-opacity:0.94117647;stroke:none;stroke-width:0.51072276;stroke-linecap:butt;stroke-linejoin:round;stroke-miterlimit:4;stroke-dasharray:none;stroke-opacity:1;paint-order:markers fill stroke" />
          <rect
             y="590.90778"
             x="1020.2245"
             height="542.80078"
             width="19.525385"
             id="rect843"
             style="opacity:1;fill:#af263d;fill-opacity:1;stroke:none;stroke-width:1.80058694;stroke-linecap:butt;stroke-linejoin:round;stroke-miterlimit:4;stroke-dasharray:none;stroke-opacity:1;paint-order:markers fill stroke" />
          <rect
             y="561.45264"
             x="1015.3527"
             height="34.037373"
             width="28.462284"
             id="rect845"
             style="opacity:1;fill:#af263d;fill-opacity:1;stroke:none;stroke-width:0.47403961;stroke-linecap:butt;stroke-linejoin:round;stroke-miterlimit:4;stroke-dasharray:none;stroke-opacity:1;paint-order:markers fill stroke" />
        </g>
      </g>
      <path
         id="path823-2"
         d="m 628.95696,440.70576 c -4.1976,-1.11417 -7.8898,-3.71154 -10.2989,-7.24501 -2.189,-3.21052 -2.9491,-5.52717 -3.1226,-9.51645 -0.1266,-2.91201 -0.043,-3.59511 0.7204,-5.86836 1.104,-3.28893 2.5349,-5.50482 5.0633,-7.84134 2.0807,-1.92279 5.8408,-4.04428 7.8291,-4.4173 0.623,-0.11684 1.2175,-0.34976 1.3212,-0.51753 0.1094,-0.17708 -0.2028,-0.21823 -0.7443,-0.0981 -5.0569,1.12213 -9.5488,4.27582 -12.3272,8.65475 -1.7784,2.80276 -2.3144,5.22179 -2.5098,11.32621 l -0.1764,5.51356 -3.6577,-0.007 c -8.9947,-0.0167 -35.47944,-0.67269 -39.50767,-0.97845 -11.37263,-0.86325 -12.99349,-1.86835 -13.71548,-8.50512 l -0.3635,-3.34125 0.97035,-1.23734 0.97034,-1.23734 0.21534,-13.16673 c 0.63226,-38.65428 1.21497,-57.40334 1.84984,-59.52051 0.45936,-1.53187 2.34094,-3.68036 3.93173,-4.48952 0.646,-0.32857 2.21143,-0.93199 3.47873,-1.34092 2.21875,-0.71594 2.92666,-0.75288 19.09177,-0.99577 9.23317,-0.13874 27.13475,-0.26524 39.78125,-0.28107 l 22.9937,-0.0288 2.2317,-1.17272 2.2316,-1.17271 1.203,-2.90222 c 0.6616,-1.5962 1.5089,-3.17928 1.8828,-3.51792 0.6405,-0.58017 1.7184,-0.62759 18.6677,-0.82115 9.8934,-0.11301 43.2691,-0.22409 74.1682,-0.24689 l 56.1802,-0.0414 0.9306,0.93813 c 0.5118,0.51598 1.5798,2.27137 2.3731,3.90088 1.4187,2.91397 1.4771,2.97982 3.5448,3.9994 l 2.1021,1.03664 17.3574,0.0296 c 9.5466,0.0163 27.1338,0.13412 39.0826,0.26173 21.2736,0.22716 21.7576,0.24671 23.2899,0.93985 1.974,0.8929 2.1401,1.31042 2.916,7.32709 0.725,5.62356 1.3902,7.95717 2.6896,9.43722 0.5235,0.59609 2.7533,2.41281 4.9552,4.03718 2.2019,1.62437 4.3738,3.24179 4.8266,3.59431 0.8171,0.63636 0.8237,0.68354 0.9307,6.71572 0.1214,6.84678 -0.1383,8.48649 -1.4382,9.07879 -1.271,0.57911 -2.3252,0.463 -3.284,-0.36174 -0.8358,-0.71889 -0.8713,-0.89724 -1.0389,-5.18439 -0.094,-2.44195 -0.015,-5.92115 0.1792,-7.73158 0.3438,-3.2118 0.3347,-3.30596 -0.3785,-3.87969 -1.6804,-1.35189 -3.5864,-2.59108 -3.7438,-2.4338 -0.093,0.0928 0.061,1.32914 0.3411,2.74738 0.2805,1.41822 0.6622,3.76362 0.8484,5.21197 0.8787,6.83424 2.1523,28.15908 2.5094,42.01147 l 0.226,8.76547 1.1571,0.55185 1.1573,0.55184 -0.1924,4.74655 c -0.1159,2.87344 -0.3633,5.09596 -0.6256,5.632 -0.536,1.09538 -2.2785,2.02127 -4.5957,2.44212 -0.9695,0.17603 -10.9982,0.41332 -22.2866,0.52726 -17.3654,0.17533 -20.5688,0.1365 -20.8148,-0.2522 -0.1601,-0.25265 -0.3083,-1.64437 -0.3295,-3.09272 -0.034,-2.30624 -0.078,-2.49023 -0.3564,-1.48126 -0.1749,0.63366 -0.5611,2.02888 -0.8583,3.10051 -1.459,5.25892 -6.9543,10.35418 -12.8133,11.88026 -5.6857,1.48093 -12.4544,-0.44001 -16.8701,-4.78771 -2.1726,-2.13911 -4.3194,-6.0576 -4.9902,-9.10873 l -0.4195,-1.90725 -0.2776,2.61827 c -0.1527,1.44006 -0.3092,2.64275 -0.3476,2.67263 -0.038,0.0299 -38.5456,0.15928 -85.5715,0.28751 l -85.5015,0.23314 v -4.20598 c 0,-2.3133 -0.1249,-4.06527 -0.2776,-3.89327 -0.1526,0.17199 -0.4596,1.57176 -0.682,3.11062 -1.0339,7.15223 -6.393,13.14887 -13.3764,14.96783 -2.3959,0.62405 -6.3116,0.61471 -8.7058,-0.0209 z m 195.8364,-23.58773 c 0.012,-0.13578 -0.1087,-0.24687 -0.2648,-0.24687 -0.3415,0 -1.0446,3.32167 -1.0043,4.74554 0.018,0.62998 0.2603,0.0163 0.6395,-1.61844 0.3359,-1.44836 0.6192,-2.74444 0.6296,-2.88023 z m 35.1355,3.64145 c -0.1051,-0.2626 -0.1829,-0.18461 -0.1988,0.19885 -0.014,0.347 0.063,0.54141 0.173,0.43204 0.1087,-0.10942 0.1209,-0.39329 0.025,-0.63089 z m -208.2592,-0.10286 c 0,-0.27156 -0.1482,-0.49374 -0.3292,-0.49374 -0.1811,0 -0.3292,0.22218 -0.3292,0.49374 0,0.27157 0.1481,0.49377 0.3292,0.49377 0.181,0 0.3292,-0.2222 0.3292,-0.49377 z m -0.5125,-2.22189 c -0.2656,-0.86405 -0.4171,-1.07285 -0.6266,-0.86339 -0.2514,0.25144 0.205,1.60403 0.5413,1.60403 0.1726,0 0.2108,-0.33226 0.085,-0.74064 z m -0.6044,-1.75505 c -0.1099,-0.28637 -0.1998,-0.58262 -0.1998,-0.65833 0,-0.0759 -0.1343,-0.13767 -0.2984,-0.13767 -0.1641,0 -0.2209,0.29624 -0.1262,0.65834 0.095,0.3621 0.3189,0.65833 0.4982,0.65833 0.1793,0 0.2361,-0.23429 0.1262,-0.52067 z m 175.5968,-2.15004 c 1.2345,-2.19551 4.7029,-5.68442 6.8519,-6.89221 1.1758,-0.66089 1.7528,-1.29961 1.1739,-1.29961 -0.5138,0 -4.4698,2.9717 -5.9068,4.43729 -1.5818,1.6132 -4.1296,5.76695 -3.5373,5.76695 0.1577,0 0.796,-0.90558 1.4183,-2.01242 z m 31.7026,-0.30962 c -1.2951,-2.37947 -4.9538,-5.93754 -7.3852,-7.182 -2.223,-1.13764 -2.2837,-1.15716 -2.2837,-0.73239 0,0.16335 0.4372,0.44937 0.9716,0.63567 2.4408,0.85089 6.2844,4.33977 8.1323,7.38205 1.427,2.34903 1.857,2.27041 0.565,-0.10321 z m -208.6788,-0.42882 c -0.2116,-0.55149 -0.7954,-0.75519 -0.7954,-0.27754 0,0.32025 0.7343,1.08705 0.891,0.93038 0.062,-0.0616 0.019,-0.35537 -0.096,-0.65284 z m -1.0588,-1.59419 c -0.2112,-0.21123 -0.4933,-0.27476 -0.6268,-0.14122 -0.1336,0.13356 -0.029,0.37485 0.2318,0.53622 0.6148,0.37993 0.8924,0.10237 0.395,-0.395 z m -2.2261,-2.26843 c -1.1582,-1.219 -2.9205,-2.52616 -2.7407,-2.0328 0.1283,0.3519 3.2755,3.05038 3.5576,3.05038 0.083,0 -0.2852,-0.45792 -0.8169,-1.01758 z m -3.7884,-2.76804 c -0.6192,-0.61919 -4.1499,-1.8794 -4.8706,-1.73846 -0.2954,0.0579 0.7221,0.57068 2.2609,1.13977 3.3576,1.24171 3.2215,1.21048 2.6097,0.59869 z m 195.0749,-1.19098 c 0.8043,-0.20255 1.4624,-0.48304 1.4624,-0.62336 0,-0.27453 -2.0018,0.10596 -3.3124,0.62938 -1.1587,0.46289 0,0.45913 1.85,-0.006 z m 9.3671,-0.4888 c -0.8121,-0.25451 -1.6268,-0.40489 -1.8105,-0.33417 -0.5341,0.20579 1.2166,0.82144 2.2996,0.80865 0.8764,-0.0108 0.8213,-0.0637 -0.4891,-0.47448 z m -212.4007,-0.36625 c -0.4979,-0.0755 -1.3125,-0.0755 -1.8104,0 -0.4979,0.0755 -0.091,0.13713 0.9052,0.13713 0.9958,0 1.4031,-0.0619 0.9052,-0.13713 z m 208.5329,0.005 c -0.4049,-0.078 -1.1456,-0.08 -1.6459,-0.006 -0.5004,0.0756 -0.1691,0.13958 0.736,0.14208 0.9052,0.002 1.3146,-0.0596 0.9099,-0.13759 z"
         style="opacity:1;fill:none;fill-opacity:1;stroke:#ffffff;stroke-width:10.11346626;stroke-linecap:butt;stroke-linejoin:round;stroke-miterlimit:4;stroke-dasharray:none;stroke-opacity:1;paint-order:markers fill stroke" />
    </g>
  </g>
</svg>
