<?xml version="1.0" encoding="UTF-8" standalone="no"?>
<svg
   xmlns:dc="http://purl.org/dc/elements/1.1/"
   xmlns:cc="http://creativecommons.org/ns#"
   xmlns:rdf="http://www.w3.org/1999/02/22-rdf-syntax-ns#"
   xmlns:svg="http://www.w3.org/2000/svg"
   xmlns="http://www.w3.org/2000/svg"
   id="svg10"
   preserveAspectRatio="xMidYMid meet"
   viewBox="0 0 1188.2657 409.23303"
   height="409.23303pt"
   width="1188.2657pt"
   version="1.0">
  <defs
     id="defs14" />
  <metadata
     id="metadata2">
Created by potrace 1.15, written by Peter Selinger 2001-2017
<rdf:RDF>
  <cc:Work
     rdf:about="">
    <dc:format>image/svg+xml</dc:format>
    <dc:type
       rdf:resource="http://purl.org/dc/dcmitype/StillImage" />
    <dc:title></dc:title>
  </cc:Work>
</rdf:RDF>
</metadata>
  <path
     d="m 346.07086,18.24511 c -3.3,2.1 -4,3.2 -8.6,14.5 l -3.1,7.8 -7.2,3.7 -7.1,3.7 -126,0.5 c -112.500001,0.5 -126.800001,0.8 -133.600001,2.2 -24.3,5.4 -32,12.9 -33.3,32.5 -0.7,11.1 -3.2,119.4 -4.2,183.3 l -0.6,42.5 -3.1,3.2 -3,3.2 0.6,10.4 c 0.9,15.9 4.5,22.4 14.2,25.3 15.2,4.6 40.7,6.1 118.300001,7.1 l 54.2,0.6 v -15.9 c 0,-22.7 3.3,-34 13.4,-46.2 8.2,-10 23.6,-19.4 33.7,-20.7 l 4.4,-0.5 -5.1,1.3 c -21.6,5.6 -38.9,23 -43.9,44 -4.7,20 1.3,40.8 16,55.3 28.7,28.3 76,20.6 94,-15.4 3.6,-7.2 4.5,-10.1 6,-20.7 l 1.3,-9 0.1,13.8 0.1,13.7 279.3,-0.2 279.2,-0.3 0.6,-11 c 0.3,-6.1 0.6,-8.9 0.7,-6.3 0.4,9.7 7.4,25.2 14.8,33.1 8.8,9.3 17.9,14.6 30.2,17.8 9.5,2.4 17.9,2.4 27.4,0 10.7,-2.8 18.7,-7.1 26.5,-14.5 10.6,-10 16.5,-21.3 18.30004,-35.6 0.6,-4.6 0.8,-3.6 0.9,5.7 l 0.1,11.3 h 64.3 c 68.3,0 79.4,-0.6 86.1,-4.3 7.6,-4.3 8.1,-5.7 8.1,-24 v -16.2 l -3.7,-2 -3.8,-2 v -25 c 0,-23.6 -2.1,-65.3 -5.5,-111.5 -1.8,-23.3 -2.9,-32.7 -5.4,-45.3 -1,-4.8 -1.7,-8.7 -1.4,-8.7 0.2,0 3.7,2.5 7.9,5.6 6.8,5.2 7.3,5.8 5.9,7.4 -1.2,1.4 -1.5,5.4 -1.5,24.7 0,22.5 0,23 2.3,25.1 3.1,2.8 6.9,3.6 11.2,2.2 5.8,-1.9 6.5,-4.7 6.5,-27.3 0,-21.9 -0.7,-25.2 -5.4,-27.2 -1.7,-0.7 -9.4,-6.1 -17.1,-12.1 -13.9,-10.6 -14.1,-10.7 -17,-17.8 -2.4,-5.9 -3.2,-10 -4.5,-23.7 -2.6,-26.1 -2.5,-26.1 -38.5,-27 -13.7,-0.4 -71.3,-0.7 -127.90004,-0.8 l -102.8,-0.1 -7,-3.7 -7,-3.7 -4.7,-10.1 c -2.9,-6 -5.9,-11 -7.6,-12.3 l -2.8,-2.2 h -240.6 c -231.5,0 -240.7,0.1 -243.6,1.8 z m -78.7,256.9 c -2.1,0.2 -5.7,0.2 -8,0 -2.4,-0.2 -0.7,-0.4 3.7,-0.4 4.4,0 6.3,0.2 4.3,0.4 z m 679,0 c -2.1,0.2 -5.7,0.2 -8,0 -2.4,-0.2 -0.7,-0.4 3.7,-0.4 4.4,0 6.3,0.2 4.3,0.4 z m -661.3,3.4 c 2.8,1 6,2.6 7.1,3.4 1.1,1 0.3,0.8 -2.3,-0.4 -2.3,-1.2 -7.2,-3 -11,-4.1 -4.1,-1.2 -5.2,-1.8 -2.9,-1.4 2.2,0.3 6.2,1.4 9.1,2.5 z m 642,-1.1 c -3.8,1 -7.2,1.6 -7.4,1.5 -0.6,-0.6 9.2,-3.4 11.9,-3.4 1.4,0 -0.6,0.8 -4.5,1.9 z m 30.8,-0.9 c 5.8,1.6 4,1.9 -2.3,0.4 -3,-0.7 -4.6,-1.4 -3.5,-1.4 1.1,-0.1 3.7,0.4 5.8,1 z m 7.7,2.9 c 0.8,0.5 1.1,1 0.5,1 -0.5,0 -1.7,-0.5 -2.5,-1 -0.8,-0.5 -1,-1 -0.5,-1 0.6,0 1.7,0.5 2.5,1 z m -51,2.6 c -11.4,6.5 -19.6,14.9 -25.3,25.9 -1.4,2.8 -2.6,4.6 -2.7,4.1 -0.1,-1.9 6.4,-12.6 10.6,-17.4 4.3,-4.9 18.3,-15.2 20.7,-15.2 0.7,0 -0.8,1.2 -3.3,2.6 z m 60,2.1 c 9.5,6.4 20,18.9 22.5,26.8 0.4,1.1 -0.7,-0.4 -2.3,-3.2 -6.8,-11.9 -13.3,-18.6 -24.2,-25.2 -1.9,-1.1 -3,-2.1 -2.5,-2.1 0.6,0 3.5,1.7 6.5,3.7 z m -670.7,6.6 c 4.3,4.1 4.4,4.4 0.8,1.2 -2.5,-2.2 -5.9,-5.1 -7.6,-6.3 -1.9,-1.5 -2.2,-1.9 -0.8,-1.2 1.3,0.6 4.7,3.4 7.6,6.3 z m 7.8,8.4 c 1.3,1.6 1.2,1.7 -0.3,0.4 -1,-0.7 -1.8,-1.5 -1.8,-1.7 0,-0.8 0.8,-0.3 2.1,1.3 z m 2.9,4.3 c 0.6,1.1 0.8,2 0.6,2 -0.3,0 -1,-0.9 -1.6,-2 -0.6,-1.1 -0.8,-2 -0.6,-2 0.3,0 1,0.9 1.6,2 z m 5,10.5 c 0,0.5 -0.5,0.3 -1,-0.5 -0.5,-0.8 -1,-2 -1,-2.5 0,-0.6 0.5,-0.3 1,0.5 0.5,0.8 1,1.9 1,2.5 z m 565.8,4.1 c -0.6,2.1 -1.4,6.1 -1.9,8.9 l -0.8,5 0.4,-5.5 c 0.4,-5.6 2.3,-13.5 3,-12.8 0.3,0.2 0,2.2 -0.7,4.4 z m -563.9,2.4 c 0,0.9 -0.4,0.8 -0.9,-0.5 -0.5,-1.1 -0.9,-2.7 -0.9,-3.5 0,-0.9 0.4,-0.8 0.9,0.5 0.5,1.1 0.9,2.7 0.9,3.5 z m 678.80004,2.2 c -0.30004,0.8 -0.60004,0.5 -0.60004,-0.6 -0.1,-1.1 0.2,-1.7 0.50004,-1.3 0.3,0.3 0.4,1.2 0.1,1.9 z m -678.00004,4 c -0.3,0.7 -0.5,0.2 -0.5,-1.2 0,-1.4 0.2,-1.9 0.5,-1.3 0.2,0.7 0.2,1.9 0,2.5 z m 679.00004,1.5 c -0.3,1 -0.5,0.4 -0.5,-1.2 0,-1.7 0.2,-2.4 0.5,-1.8 0.2,0.7 0.2,2.1 0,3 z"
     id="path6"
     style="fill:none;stroke:#702f7b;stroke-width:7.875;stroke-miterlimit:4;stroke-dasharray:none;stroke-opacity:0.92964825" />
  <path
     id="path823"
     d="m 249.20108,390.8984 c -13.66558,-3.62726 -25.68571,-12.08307 -33.52879,-23.58653 -7.12625,-10.45207 -9.60092,-17.99403 -10.16563,-30.98136 -0.41222,-9.48028 -0.13925,-11.70416 2.34507,-19.10481 3.59434,-10.70736 8.25247,-17.92126 16.48381,-25.52796 6.77384,-6.25982 19.01502,-13.16648 25.48826,-14.38086 2.0281,-0.38048 3.96367,-1.13867 4.30123,-1.68487 0.35628,-0.57647 -0.66023,-0.71039 -2.42299,-0.31924 -16.46318,3.65325 -31.08677,13.92022 -40.13213,28.1761 -5.78956,9.12458 -7.53465,16.99992 -8.1707,36.87315 l -0.5745,17.94977 -11.90763,-0.0222 C 161.63415,358.23498 75.411565,356.09956 62.29741,355.10415 25.273093,352.29384 19.996323,349.02168 17.645793,327.41523 l -1.183356,-10.87761 3.159011,-4.02827 3.15901,-4.02825 0.701122,-42.86512 C 25.5399,139.7746 27.436911,78.735936 29.503804,71.843394 c 1.495511,-4.987128 7.621088,-11.981727 12.8,-14.615905 2.10309,-1.069706 7.199426,-3.034168 11.325194,-4.365471 7.223244,-2.330798 9.527919,-2.451003 62.154412,-3.241777 30.05916,-0.451674 88.33878,-0.863453 129.51027,-0.915065 l 74.85724,-0.09384 7.26541,-3.817865 7.26541,-3.817865 3.91626,-9.4483 c 2.15394,-5.196564 4.91221,-10.350339 6.12947,-11.452832 2.08542,-1.888794 5.59444,-2.043147 60.77411,-2.673312 32.20849,-0.367828 140.865,-0.729503 241.45892,-0.803721 l 182.89804,-0.134942 3.0294,3.054164 c 1.6662,1.679789 5.14282,7.394597 7.7259,12.699572 4.6191,9.486594 4.80907,9.700977 11.54025,13.020254 l 6.84382,3.374847 56.50807,0.09674 c 31.07948,0.05321 88.33542,0.436624 127.23562,0.852033 69.2579,0.739596 70.8332,0.803166 75.822,3.059806 6.4262,2.906895 6.9671,4.266128 9.4926,23.853749 2.3605,18.307891 4.5258,25.905036 8.7563,30.723486 1.704,1.94057 8.9634,7.85504 16.1322,13.14327 7.1687,5.28823 14.2396,10.55386 15.7131,11.70141 2.6602,2.07176 2.6815,2.22532 3.03,21.86347 0.3954,22.29017 -0.4503,27.62833 -4.6821,29.55654 -4.138,1.88537 -7.5693,1.50741 -10.6909,-1.17761 -2.7209,-2.34046 -2.8373,-2.92101 -3.3825,-16.87814 -0.3105,-7.94986 -0.048,-19.27662 0.583,-25.17058 1.1197,-10.45618 1.0899,-10.76273 -1.2318,-12.63049 -5.4705,-4.40127 -11.676,-8.43548 -12.188,-7.92347 -0.3022,0.30216 0.1975,4.32705 1.1104,8.94422 0.913,4.61718 2.1558,12.25272 2.7619,16.96788 2.8604,22.24927 7.0071,91.67361 8.1693,136.77096 l 0.7356,28.53654 3.7674,1.79656 3.7674,1.79656 -0.6261,15.45269 c -0.379,9.35463 -1.1827,16.59024 -2.0367,18.33527 -1.7451,3.56611 -7.4176,6.58042 -14.9616,7.95046 -3.1561,0.57315 -35.806,1.34562 -72.5554,1.71661 -56.5345,0.57071 -66.9628,0.44436 -67.764,-0.82104 -0.5209,-0.82255 -1.0037,-5.3534 -1.0728,-10.06857 -0.1102,-7.50807 -0.2543,-8.10709 -1.1604,-4.82232 -0.56904,2.06288 -1.82642,6.60512 -2.79422,10.09385 -4.74952,17.12075 -22.64017,33.70872 -41.71432,38.67691 -18.51008,4.82124 -40.54605,-1.43254 -54.92168,-15.58666 -7.07295,-6.964 -14.06182,-19.72091 -16.2459,-29.65397 l -1.3653,-6.2092 -0.90397,8.52396 c -0.49725,4.68816 -1.0065,8.60356 -1.13175,8.70088 -0.12518,0.0973 -125.48754,0.51851 -278.58299,0.93597 l -278.35533,0.75902 v -13.69285 c 0,-7.53106 -0.40668,-13.23472 -0.90372,-12.67479 -0.49704,0.55992 -1.49623,5.11702 -2.22042,10.12688 -3.36585,23.28446 -20.81262,42.8069 -43.54772,48.72865 -7.79997,2.03163 -20.54781,2.00122 -28.3421,-0.0677 z m 637.55718,-76.79126 c 0.0337,-0.44205 -0.35423,-0.80373 -0.86228,-0.80373 -1.1118,0 -3.40035,10.81391 -3.26962,15.44943 0.0577,2.05095 0.84742,0.0527 2.08185,-5.26896 1.09372,-4.71516 2.01622,-8.93469 2.05005,-9.37674 z m 114.38604,11.85488 c -0.3421,-0.85487 -0.596,-0.60095 -0.6475,0.64744 -0.047,1.12968 0.2068,1.76261 0.5629,1.40652 0.3561,-0.3561 0.3941,-1.28038 0.084,-2.05396 z m -678.00089,-0.33488 c 0,-0.8841 -0.48224,-1.60745 -1.07163,-1.60745 -0.5894,0 -1.07163,0.72335 -1.07163,1.60745 0,0.88409 0.48223,1.60744 1.07163,1.60744 0.58939,0 1.07163,-0.72335 1.07163,-1.60744 z m -1.66836,-7.23349 c -0.86467,-2.81301 -1.35796,-3.49276 -2.03984,-2.81088 -0.81859,0.8186 0.66731,5.22204 1.76214,5.22204 0.56177,0 0.68636,-1.0817 0.2777,-2.41116 z m -1.96769,-5.7137 c -0.35776,-0.93229 -0.65047,-1.89675 -0.65047,-2.14325 0,-0.24648 -0.43708,-0.44817 -0.9713,-0.44817 -0.53422,0 -0.71909,0.96446 -0.41083,2.14326 0.30827,1.17879 1.03806,2.14325 1.62177,2.14325 0.58372,0 0.76858,-0.76278 0.41083,-1.69509 z m 571.66585,-6.9997 c 4.0188,-7.14763 15.3108,-18.50594 22.30702,-22.43804 3.82815,-2.15152 5.70653,-4.23089 3.822,-4.23089 -1.67325,0 -14.55195,9.67448 -19.23045,14.44589 -5.14957,5.25184 -13.44405,18.77458 -11.5158,18.77458 0.51353,0 2.59125,-2.94819 4.61723,-6.55154 z m 103.20997,-1.00797 c -4.2162,-7.74654 -16.1277,-19.33003 -24.04357,-23.38147 -7.23638,-3.70365 -7.43438,-3.76715 -7.43438,-2.38432 0,0.53174 1.42343,1.46301 3.1632,2.06948 7.94618,2.77005 20.4591,14.12837 26.4756,24.03269 4.64558,7.64738 6.04515,7.39141 1.83915,-0.33638 z m -679.36641,-1.39594 c -0.68897,-1.79543 -2.58964,-2.45858 -2.58964,-0.90353 0,1.04256 2.39074,3.53893 2.90076,3.02891 0.20051,-0.20051 0.0605,-1.15693 -0.31112,-2.12538 z m -3.44694,-5.19004 c -0.68763,-0.68763 -1.60598,-0.89449 -2.04078,-0.45968 -0.4348,0.4348 -0.0952,1.22034 0.75482,1.74564 2.00137,1.2369 2.90509,0.33318 1.28596,-1.28596 z m -7.24733,-7.385 c -3.77043,-3.96848 -9.50796,-8.22405 -8.9225,-6.61786 0.41759,1.14562 10.6634,9.93067 11.58193,9.93067 0.26842,0 -0.92831,-1.49076 -2.65943,-3.31281 z m -12.33345,-9.01152 c -2.0158,-2.01579 -13.51026,-6.11849 -15.85649,-5.65962 -0.96153,0.18807 2.35076,1.85782 7.36061,3.71059 10.9308,4.04248 10.48765,3.94082 8.49588,1.94903 z m 635.07796,-3.87729 c 2.61855,-0.65938 4.761,-1.57257 4.761,-2.02936 0,-0.89374 -6.51713,0.34457 -10.78358,2.04897 -3.7722,1.50697 0.008,1.49466 6.02258,-0.0197 z m 30.49537,-1.59129 c -2.64382,-0.82863 -5.29612,-1.31819 -5.89395,-1.08792 -1.73917,0.66993 3.96045,2.67424 7.48613,2.63255 2.85315,-0.0337 2.67405,-0.20755 -1.59218,-1.54463 z m -691.48316,-1.19231 c -1.62084,-0.24554 -4.27311,-0.24554 -5.89395,0 -1.62084,0.24553 -0.2947,0.44642 2.94698,0.44642 3.24167,0 4.56781,-0.20089 2.94697,-0.44642 z m 678.89096,0.0132 c -1.31797,-0.25436 -3.72915,-0.26095 -5.35807,-0.0146 -1.629,0.24632 -0.55058,0.45443 2.3964,0.46248 2.94697,0.007 4.27972,-0.19349 2.96167,-0.44785 z"
     style="opacity:1;fill:none;fill-opacity:1;stroke:#702f7b;stroke-width:32.92499924;stroke-linecap:butt;stroke-linejoin:round;stroke-miterlimit:4;stroke-dasharray:none;stroke-opacity:0.98994978;paint-order:markers fill stroke" />
  <circle
     r="60.657524"
     cy="334.34683"
     cx="263.11331"
     id="path829"
     style="opacity:1;fill:none;fill-opacity:1;stroke:#702f7b;stroke-width:7.875;stroke-linecap:butt;stroke-linejoin:round;stroke-miterlimit:4;stroke-dasharray:none;stroke-opacity:0.92964825;paint-order:markers fill stroke" />
  <circle
     r="60.657524"
     cy="334.36951"
     cx="941.41339"
     id="path829-4"
     style="opacity:1;fill:none;fill-opacity:1;stroke:#702f7b;stroke-width:7.875;stroke-linecap:butt;stroke-linejoin:round;stroke-miterlimit:4;stroke-dasharray:none;stroke-opacity:0.92964825;paint-order:markers fill stroke" />
  <ellipse
     ry="70.458275"
     rx="72.79068"
     cy="332.59753"
     cx="262.53018"
     id="path829-8"
     style="opacity:1;fill:#702e7b;fill-opacity:1;stroke:#702f7b;stroke-width:10.29885483;stroke-linecap:butt;stroke-linejoin:round;stroke-miterlimit:4;stroke-dasharray:none;stroke-opacity:0.92964825;paint-order:markers fill stroke" />
  <ellipse
     ry="70.458282"
     rx="72.79068"
     cy="330.29745"
     cx="940.93823"
     id="path829-8-0"
     style="opacity:1;fill:#702e7b;fill-opacity:1;stroke:#702f7b;stroke-width:10.29885483;stroke-linecap:butt;stroke-linejoin:round;stroke-miterlimit:4;stroke-dasharray:none;stroke-opacity:0.92964825;paint-order:markers fill stroke" />
</svg>
