<?xml version="1.0" encoding="UTF-8" standalone="no"?>
<svg
   xmlns:dc="http://purl.org/dc/elements/1.1/"
   xmlns:cc="http://creativecommons.org/ns#"
   xmlns:rdf="http://www.w3.org/1999/02/22-rdf-syntax-ns#"
   xmlns:svg="http://www.w3.org/2000/svg"
   xmlns="http://www.w3.org/2000/svg"
   id="svg961"
   version="1.1"
   viewBox="0 0 9.8319558 9.8319502"
   height="9.8319502mm"
   width="9.8319559mm">
  <defs
     id="defs955" />
  <metadata
     id="metadata958">
    <rdf:RDF>
      <cc:Work
         rdf:about="">
        <dc:format>image/svg+xml</dc:format>
        <dc:type
           rdf:resource="http://purl.org/dc/dcmitype/StillImage" />
        <dc:title></dc:title>
      </cc:Work>
    </rdf:RDF>
  </metadata>
  <g
     transform="translate(-96.446984,-136.92316)"
     id="layer1">
    <path
       style="fill:#2f4f4f;fill-opacity:1;stroke-width:0.02194632"
       d="m 105.57666,140.78571 h -3.16027 v -3.16027 c 0,-0.38779 -0.31449,-0.70228 -0.70228,-0.70228 h -0.70229 c -0.38779,0 -0.70228,0.31449 -0.70228,0.70228 v 3.16027 h -3.160273 c -0.387794,0 -0.702283,0.31449 -0.702283,0.70228 v 0.70229 c 0,0.38778 0.314489,0.70228 0.702283,0.70228 h 3.160273 v 3.16027 c 0,0.38779 0.31449,0.70228 0.70228,0.70228 h 0.70229 c 0.38779,0 0.70228,-0.31449 0.70228,-0.70228 v -3.16027 h 3.16027 c 0.38779,0 0.70228,-0.3145 0.70228,-0.70228 v -0.70229 c 0,-0.38779 -0.31449,-0.70228 -0.70228,-0.70228 z"
       id="path1619" />
  </g>
</svg>
