<?xml version="1.0" encoding="UTF-8" standalone="no"?>
<svg
   xmlns:dc="http://purl.org/dc/elements/1.1/"
   xmlns:cc="http://creativecommons.org/ns#"
   xmlns:rdf="http://www.w3.org/1999/02/22-rdf-syntax-ns#"
   xmlns:svg="http://www.w3.org/2000/svg"
   xmlns="http://www.w3.org/2000/svg"
   id="svg2991"
   version="1.1"
   viewBox="0 0 79.374999 79.374999"
   height="79.375mm"
   width="79.375mm">
  <defs
     id="defs2985" />
  <metadata
     id="metadata2988">
    <rdf:RDF>
      <cc:Work
         rdf:about="">
        <dc:format>image/svg+xml</dc:format>
        <dc:type
           rdf:resource="http://purl.org/dc/dcmitype/StillImage" />
        <dc:title></dc:title>
      </cc:Work>
    </rdf:RDF>
  </metadata>
  <g
     transform="translate(-15.213793,-134.59452)"
     id="layer1">
    <g
       transform="matrix(0.15871104,0,0,0.15871104,37.675623,148.47479)"
       id="g3552">
      <g
         id="text2397"
         style="font-style:normal;font-variant:normal;font-weight:normal;font-stretch:normal;font-size:416.76895142px;line-height:1.25;font-family:'Font Awesome 5 Free';-inkscape-font-specification:'Font Awesome 5 Free';letter-spacing:0px;word-spacing:0px;fill:#384a6e;fill-opacity:1;stroke:none;stroke-width:4.88401031"
         aria-label="">
        <path
           id="path3554"
           style="fill:#384a6e;fill-opacity:1;stroke-width:4.88401031"
           d="m 297.38323,58.412868 h -6.51202 V 19.340779 c 0,-35.816081 -81.40018,-65.120148 -182.33641,-65.120148 -101.7502346,0 -182.336419,29.304067 -182.336419,65.120148 v 39.072089 h -6.512014 c -11.396026,0 -19.536045,8.954021 -19.536045,19.536045 v 65.120147 c 0,11.39603 8.140019,19.53605 19.536045,19.53605 h 6.512014 V 292.8454 c 0,14.65204 11.396026,26.04806 26.04806,26.04806 v 26.04806 c 0,14.65204 11.396026,26.04806 26.048059,26.04806 H 4.3425598 c 13.8380312,0 26.0480592,-11.39602 26.0480592,-26.04806 V 318.89346 H 186.67898 v 26.04806 c 0,14.65204 11.39602,26.04806 26.04806,26.04806 h 26.04805 c 13.83804,0 26.04806,-11.39602 26.04806,-26.04806 v -26.04806 h 4.88402 c 13.02403,0 21.16404,-9.76802 21.16404,-20.35004 V 162.60511 h 6.51202 c 10.58202,0 19.53604,-8.14002 19.53604,-19.53605 V 77.948913 c 0,-10.582024 -8.95402,-19.536045 -19.53604,-19.536045 z M -8.6814699,279.82137 c -14.6520331,0 -26.0480591,-11.39602 -26.0480591,-26.04806 0,-13.83803 11.396026,-26.04805 26.0480591,-26.04805 13.8380316,0 26.0480599,12.21002 26.0480599,26.04805 0,14.65204 -12.2100283,26.04806 -26.0480599,26.04806 z m 13.0240297,-91.1682 c -14.6520338,0 -26.0480598,-11.39603 -26.0480598,-26.04806 V 58.412868 c 0,-13.838031 11.396026,-26.048059 26.0480598,-26.048059 H 212.72704 c 13.83803,0 26.04805,12.210028 26.04805,26.048059 V 162.60511 c 0,14.65203 -12.21002,26.04806 -26.04805,26.04806 z m 221.4085102,91.1682 c -14.65204,0 -26.04806,-11.39602 -26.04806,-26.04806 0,-13.83803 11.39602,-26.04805 26.04806,-26.04805 13.83803,0 26.04805,12.21002 26.04805,26.04805 0,14.65204 -12.21002,26.04806 -26.04805,26.04806 z" />
      </g>
      <g
         id="text2282"
         style="font-style:normal;font-variant:normal;font-weight:normal;font-stretch:normal;font-size:169.85067749px;line-height:1.25;font-family:'Font Awesome 5 Free';-inkscape-font-specification:'Font Awesome 5 Free';letter-spacing:0px;word-spacing:0px;fill:#384a6e;fill-opacity:1;stroke:none;stroke-width:1.99043763"
         aria-label="">
        <path
           id="path3557"
           style="fill:#384a6e;fill-opacity:1;stroke-width:1.99043763"
           d="m 138.05962,135.07898 c -9.62044,0 -13.93306,5.30784 -29.52482,5.30784 -15.923501,0 -20.236116,-5.30784 -29.856565,-5.30784 -24.548731,0 -44.453107,20.23612 -44.453107,44.78485 v 8.29349 c 0,8.95697 6.966532,15.9235 15.923501,15.9235 H 166.92097 c 8.62523,0 15.9235,-6.96653 15.9235,-15.9235 v -8.29349 c 0,-24.54873 -20.23611,-44.78485 -44.78485,-44.78485 z m 28.86135,53.07834 H 50.148629 v -8.29349 c 0,-15.9235 12.606105,-28.86134 28.529606,-28.86134 4.976094,0 12.606105,5.30783 29.856565,5.30783 16.91872,0 24.54873,-5.30783 29.52482,-5.30783 15.92351,0 28.86135,12.93784 28.86135,28.86134 z M 108.5348,129.77115 c 26.20743,0 47.7705,-21.23133 47.7705,-47.770502 0,-26.207429 -21.56307,-47.770503 -47.7705,-47.770503 -26.539169,0 -47.770503,21.563074 -47.770503,47.770503 0,26.539172 21.231334,47.770502 47.770503,47.770502 z m 0,-79.617504 c 17.25046,0 31.847,14.596542 31.847,31.847002 0,17.582199 -14.59654,31.847002 -31.847,31.847002 -17.582199,0 -31.847002,-14.264803 -31.847002,-31.847002 0,-17.25046 14.264803,-31.847002 31.847002,-31.847002 z" />
      </g>
    </g>
  </g>
</svg>
