<?xml version="1.0" encoding="UTF-8" standalone="no"?>
<svg
   xmlns:dc="http://purl.org/dc/elements/1.1/"
   xmlns:cc="http://creativecommons.org/ns#"
   xmlns:rdf="http://www.w3.org/1999/02/22-rdf-syntax-ns#"
   xmlns:svg="http://www.w3.org/2000/svg"
   xmlns="http://www.w3.org/2000/svg"
   xmlns:sodipodi="http://sodipodi.sourceforge.net/DTD/sodipodi-0.dtd"
   xmlns:inkscape="http://www.inkscape.org/namespaces/inkscape"
   version="1.1"
   x="0px"
   y="0px"
   viewBox="0 0 91.639999 64.619362"
   enable-background="new 0 0 100 100"
   xml:space="preserve"
   id="svg18"
   sodipodi:docname="wet.svg"
   width="91.639999"
   height="64.619362"
   inkscape:version="0.92.3 (2405546, 2018-03-11)"><metadata
     id="metadata24"><rdf:RDF><cc:Work
         rdf:about=""><dc:format>image/svg+xml</dc:format><dc:type
           rdf:resource="http://purl.org/dc/dcmitype/StillImage" /><dc:title></dc:title></cc:Work></rdf:RDF></metadata><defs
     id="defs22" /><sodipodi:namedview
     pagecolor="#ffffff"
     bordercolor="#666666"
     borderopacity="1"
     objecttolerance="10"
     gridtolerance="10"
     guidetolerance="10"
     inkscape:pageopacity="0"
     inkscape:pageshadow="2"
     inkscape:window-width="1920"
     inkscape:window-height="1017"
     id="namedview20"
     showgrid="false"
     fit-margin-top="0"
     fit-margin-left="0"
     fit-margin-right="0"
     fit-margin-bottom="0"
     inkscape:zoom="1.888"
     inkscape:cx="45.82"
     inkscape:cy="18.548364"
     inkscape:window-x="-8"
     inkscape:window-y="-8"
     inkscape:window-maximized="1"
     inkscape:current-layer="svg18" /><g
     id="g12"
     transform="translate(-4.18,-16.429)"><path
       stroke-miterlimit="10"
       d="m 71,62.071 h 12.24 c 6.12,0 11.08,-4.961 11.08,-11.08 0,-6.12 -4.96,-11.08 -11.08,-11.08 -0.061,0 -0.119,0.008 -0.179,0.009 0,-0.003 10e-4,-0.006 10e-4,-0.009 0,-12.141 -9.842,-21.982 -21.982,-21.982 -8.865,0 -16.486,5.26 -19.962,12.819 -2.312,-1.22 -4.942,-1.918 -7.739,-1.918 -7.25,0 -13.4,4.652 -15.672,11.128 -0.312,-0.026 -0.627,-0.047 -0.947,-0.047 -6.12,0 -11.08,4.96 -11.08,11.08 0,6.119 4.96,11.08 11.08,11.08 h 14.49"
       id="path2"
       inkscape:connector-curvature="0"
       style="fill:none;stroke:#000000;stroke-width:3;stroke-linecap:round;stroke-linejoin:round;stroke-miterlimit:10" /><line
       stroke-miterlimit="10"
       x1="35.5"
       y1="70.5"
       x2="35.5"
       y2="79.527"
       id="line4"
       style="fill:none;stroke:#000000;stroke-width:3;stroke-linecap:round;stroke-linejoin:round;stroke-miterlimit:10" /><line
       stroke-miterlimit="10"
       x1="45.5"
       y1="70.5"
       x2="45.5"
       y2="79.527"
       id="line6"
       style="fill:none;stroke:#000000;stroke-width:3;stroke-linecap:round;stroke-linejoin:round;stroke-miterlimit:10" /><line
       stroke-miterlimit="10"
       x1="55.5"
       y1="70.5"
       x2="55.5"
       y2="79.527"
       id="line8"
       style="fill:none;stroke:#000000;stroke-width:3;stroke-linecap:round;stroke-linejoin:round;stroke-miterlimit:10" /><line
       stroke-miterlimit="10"
       x1="65.5"
       y1="70.5"
       x2="65.5"
       y2="79.527"
       id="line10"
       style="fill:none;stroke:#000000;stroke-width:3;stroke-linecap:round;stroke-linejoin:round;stroke-miterlimit:10" /></g></svg>