<?xml version="1.0" encoding="UTF-8" standalone="no"?>
<svg
   xmlns:dc="http://purl.org/dc/elements/1.1/"
   xmlns:cc="http://creativecommons.org/ns#"
   xmlns:rdf="http://www.w3.org/1999/02/22-rdf-syntax-ns#"
   xmlns:svg="http://www.w3.org/2000/svg"
   xmlns="http://www.w3.org/2000/svg"
   xmlns:sodipodi="http://sodipodi.sourceforge.net/DTD/sodipodi-0.dtd"
   xmlns:inkscape="http://www.inkscape.org/namespaces/inkscape"
   version="1.1"
   x="0px"
   y="0px"
   viewBox="0 0 92.000419 77.762261"
   enable-background="new 0 0 100 100"
   xml:space="preserve"
   id="svg30"
   sodipodi:docname="dry.svg"
   width="92.00042"
   height="77.76226"
   inkscape:version="0.92.3 (2405546, 2018-03-11)"><metadata
     id="metadata36"><rdf:RDF><cc:Work
         rdf:about=""><dc:format>image/svg+xml</dc:format><dc:type
           rdf:resource="http://purl.org/dc/dcmitype/StillImage" /><dc:title></dc:title></cc:Work></rdf:RDF></metadata><defs
     id="defs34" /><sodipodi:namedview
     pagecolor="#ffffff"
     bordercolor="#666666"
     borderopacity="1"
     objecttolerance="10"
     gridtolerance="10"
     guidetolerance="10"
     inkscape:pageopacity="0"
     inkscape:pageshadow="2"
     inkscape:window-width="1770"
     inkscape:window-height="981"
     id="namedview32"
     showgrid="false"
     fit-margin-top="0"
     fit-margin-left="0"
     fit-margin-right="0"
     fit-margin-bottom="0"
     inkscape:zoom="4.5651961"
     inkscape:cx="-20.721585"
     inkscape:cy="32.536965"
     inkscape:window-x="0"
     inkscape:window-y="0"
     inkscape:window-maximized="0"
     inkscape:current-layer="svg30" /><g
     id="g884"
     transform="translate(-167.35316,63.552028)"><path
       stroke-miterlimit="10"
       d="m 79.06,58.674364 c -0.061,0 -0.119,0.008 -0.179,0.009 0,-0.003 0.001,-0.006 0.001,-0.009 0,-12.141 -9.842,-21.982 -21.982,-21.982 -8.865,0 -16.486,5.26 -19.962,12.819 -2.312,-1.22 -4.942,-1.918 -7.739,-1.918 -7.25,0 -13.4,4.652 -15.672,11.128 -0.312,-0.026 -0.627,-0.047 -0.947,-0.047 -6.12,0 -11.08,4.96 -11.08,11.08 0,6.119 4.96,11.08 11.08,11.08 h 66.48 c 6.12,0 11.08,-4.961 11.08,-11.08 0,-6.12 -4.96,-11.08 -11.08,-11.08 z"
       id="path2"
       inkscape:connector-curvature="0"
       style="fill:none;fill-opacity:1;stroke:#ffffff;stroke-width:3;stroke-linecap:round;stroke-linejoin:round;stroke-miterlimit:10;stroke-opacity:1" /><g
       transform="translate(-7.43,-1.145636)"
       id="g22"
       style="fill:#ffffff;fill-opacity:1;stroke:#ffffff;stroke-opacity:1"><circle
         stroke-miterlimit="10"
         cx="27.145"
         cy="26.645"
         r="8.5229998"
         id="circle4"
         style="fill:#ffffff;fill-opacity:1;stroke:#ffffff;stroke-width:3;stroke-linecap:round;stroke-linejoin:round;stroke-miterlimit:10;stroke-opacity:1" /><line
         stroke-miterlimit="10"
         x1="27.145"
         y1="8.6669998"
         x2="27.145"
         y2="12.263"
         id="line6"
         style="fill:#ffffff;fill-opacity:1;stroke:#ffffff;stroke-width:3;stroke-linecap:round;stroke-linejoin:round;stroke-miterlimit:10;stroke-opacity:1" /><line
         stroke-miterlimit="10"
         x1="14.432"
         y1="13.933"
         x2="16.973"
         y2="16.476"
         id="line8"
         style="fill:#ffffff;fill-opacity:1;stroke:#ffffff;stroke-width:3;stroke-linecap:round;stroke-linejoin:round;stroke-miterlimit:10;stroke-opacity:1" /><line
         stroke-miterlimit="10"
         x1="9.1660004"
         y1="26.645"
         x2="12.762"
         y2="26.646"
         id="line10"
         style="fill:#ffffff;fill-opacity:1;stroke:#ffffff;stroke-width:3;stroke-linecap:round;stroke-linejoin:round;stroke-miterlimit:10;stroke-opacity:1" /><line
         stroke-miterlimit="10"
         x1="14.432"
         y1="39.358002"
         x2="16.975"
         y2="36.814999"
         id="line12"
         style="fill:#ffffff;fill-opacity:1;stroke:#ffffff;stroke-width:3;stroke-linecap:round;stroke-linejoin:round;stroke-miterlimit:10;stroke-opacity:1" /><line
         stroke-miterlimit="10"
         x1="27.145"
         y1="44.624001"
         x2="27.145"
         y2="41.027"
         id="line14"
         style="fill:#ffffff;fill-opacity:1;stroke:#ffffff;stroke-width:3;stroke-linecap:round;stroke-linejoin:round;stroke-miterlimit:10;stroke-opacity:1" /><line
         stroke-miterlimit="10"
         x1="39.855999"
         y1="39.358002"
         x2="37.313"
         y2="36.814999"
         id="line16"
         style="fill:#ffffff;fill-opacity:1;stroke:#ffffff;stroke-width:3;stroke-linecap:round;stroke-linejoin:round;stroke-miterlimit:10;stroke-opacity:1" /><line
         stroke-miterlimit="10"
         x1="45.122002"
         y1="26.646"
         x2="41.526001"
         y2="26.646"
         id="line18"
         style="fill:#ffffff;fill-opacity:1;stroke:#ffffff;stroke-width:3;stroke-linecap:round;stroke-linejoin:round;stroke-miterlimit:10;stroke-opacity:1" /><line
         stroke-miterlimit="10"
         x1="39.855999"
         y1="13.933"
         x2="37.313"
         y2="16.476"
         id="line20"
         style="fill:#ffffff;fill-opacity:1;stroke:#ffffff;stroke-width:3;stroke-linecap:round;stroke-linejoin:round;stroke-miterlimit:10;stroke-opacity:1" /></g></g><g
     id="g871"
     transform="translate(92.2819,-11.311238)"><path
       inkscape:connector-curvature="0"
       id="path834"
       d="m -81.912261,64.613152 c -4.35924,-0.959177 -7.83518,-4.093926 -9.30983,-8.395998 -0.46299,-1.350706 -0.48395,-1.509894 -0.489,-3.713677 -0.006,-2.74818 0.16954,-3.550107 1.25403,-5.719062 1.95,-3.899987 5.73512,-6.485132 10.03817,-6.85583 l 1.04772,-0.09026 0.64487,-1.259377 c 3.31244,-6.468925 10.4879,-10.414799 17.628093,-9.693902 1.716704,0.173324 3.448662,0.561115 4.688247,1.049714 0.415185,0.163651 0.77171,0.278385 0.792278,0.254965 0.02057,-0.02342 0.321268,-0.510505 0.668222,-1.082411 1.427772,-2.353478 3.806254,-4.94854 6.08892,-6.643364 9.678841,-7.186301 23.466662,-5.695141 31.416147,3.397674 3.196666,3.656422 5.335367,8.529421 5.679645,12.940987 0.07387,0.946601 0.122751,1.08659 0.396842,1.136597 3.6545486,0.666762 6.4948556,2.287019 8.3903446,4.786281 0.979771,1.291856 1.858183,3.078002 2.25843104,4.592244 0.44034,1.665924 0.4411,4.428047 0.0017,6.082411 -1.22104404,4.597007 -4.72014704,8.048233 -9.26447204,9.137706 -1.1290036,0.270672 -1.7701516,0.29303 -8.4305476,0.293991 -7.961537,0.0012 -7.68813,0.03336 -8.010549,-0.943579 -0.203294,-0.615987 -0.03331,-1.124404 0.521946,-1.561173 0.39743,-0.312619 0.488669,-0.316634 7.252762,-0.31918 7.779512,-0.0029 8.141667,-0.04085 10.1925776,-1.067315 1.768161,-0.88495 3.286777,-2.403136 4.135453,-4.134282 0.898094,-1.83195 1.113591,-2.845178 1.025119,-4.819925 -0.12177,-2.717948 -0.936212,-4.591605 -2.81829,-6.483586 -1.662757,-1.671507 -4.3361946,-2.778284 -6.7592126,-2.798248 -0.474479,-0.0039 -0.738535,-0.105528 -1.074974,-0.413688 -0.431326,-0.395072 -0.450873,-0.470659 -0.594483,-2.298825 -0.178543,-2.272877 -0.462916,-3.718657 -1.069634,-5.43814 -2.481112,-7.031569 -8.360007,-12.071058 -15.720251,-13.475644 -1.881728,-0.359098 -5.338594,-0.365337 -7.278806,-0.01314 -4.209522,0.764141 -7.756327,2.639925 -10.844413,5.735238 -1.761796,1.76592 -2.958953,3.387866 -3.91875,5.309248 -0.2943,0.589149 -0.67666,1.146945 -0.849688,1.239547 -0.464946,0.248832 -1.237324,0.09996 -2.715091,-0.523321 -2.078657,-0.876716 -3.752651,-1.161119 -6.330866,-1.075584 -3.08457,0.102333 -5.38273,0.815856 -7.82717,2.430146 -2.44707,1.616026 -5.02008,4.866952 -5.8295,7.365414 -0.29783,0.919319 -0.66297,1.095442 -2.48897,1.200541 -0.88316,0.05083 -1.97339,0.192983 -2.42275,0.315894 -2.56483,0.701554 -4.91608,2.632322 -6.07041,4.984822 -2.63055,5.361006 -0.1462,11.43833 5.51594,13.49333 l 1.07439,0.389935 8.46718,0.07722 c 4.65695,0.04247 8.58664,0.135451 8.73264,0.206628 0.34255,0.167001 0.7001,0.86162 0.7001,1.360108 0,0.233181 -0.17471,0.564886 -0.43422,0.824386 l -0.43421,0.434215 -8.3672,-0.01181 c -6.34511,-0.009 -8.58259,-0.0592 -9.25848,-0.207921 z"
       style="opacity:1;fill:#ffffff;fill-opacity:1;stroke:#ffffff;stroke-width:1.12287545;stroke-linecap:butt;stroke-linejoin:round;stroke-miterlimit:4;stroke-dasharray:none;stroke-opacity:1;paint-order:markers fill stroke" /><path
       inkscape:connector-curvature="0"
       id="path836"
       d="m -61.521831,81.928148 -0.48512,-0.433289 -0.043,-4.842489 c -0.0371,-4.176151 -0.0105,-4.910875 0.19284,-5.339465 0.52338,-1.102949 1.999298,-1.102949 2.522682,0 0.203379,0.42859 0.229915,1.163314 0.192842,5.339465 l -0.04299,4.842489 -0.485122,0.433289 c -0.305016,0.272426 -0.64883,0.433288 -0.926075,0.433288 -0.277246,0 -0.62106,-0.160862 -0.926077,-0.433288 z"
       style="opacity:1;fill:#ffffff;fill-opacity:1;stroke:#ffffff;stroke-width:1.12287545;stroke-linecap:butt;stroke-linejoin:round;stroke-miterlimit:4;stroke-dasharray:none;stroke-opacity:1;paint-order:markers fill stroke" /><path
       inkscape:connector-curvature="0"
       id="path838"
       d="m -51.184262,82.21414 c -0.781667,-0.315442 -0.795767,-0.4189 -0.795767,-5.839065 V 71.3461 l 0.434215,-0.434214 c 0.558712,-0.558712 1.301003,-0.588397 1.897118,-0.07587 l 0.416788,0.358347 0.04301,4.944402 c 0.04657,5.353912 0.01388,5.624753 -0.725019,6.006853 -0.465774,0.240861 -0.798772,0.258822 -1.270345,0.06852 z"
       style="opacity:1;fill:#ffffff;fill-opacity:1;stroke:#ffffff;stroke-width:1.12287545;stroke-linecap:butt;stroke-linejoin:round;stroke-miterlimit:4;stroke-dasharray:none;stroke-opacity:1;paint-order:markers fill stroke" /><path
       inkscape:connector-curvature="0"
       id="path840"
       d="m -41.30127,82.14601 c -0.706812,-0.397518 -0.741064,-0.693646 -0.694842,-6.007242 l 0.04301,-4.944402 0.416788,-0.358347 c 0.596115,-0.51253 1.338406,-0.482845 1.897118,0.07587 l 0.434214,0.434214 v 5.053744 c 0,5.027912 -0.0017,5.055709 -0.33423,5.438409 -0.410249,0.472155 -1.218687,0.613355 -1.762058,0.307757 z"
       style="opacity:1;fill:#ffffff;fill-opacity:1;stroke:#ffffff;stroke-width:1.12287545;stroke-linecap:butt;stroke-linejoin:round;stroke-miterlimit:4;stroke-dasharray:none;stroke-opacity:1;paint-order:markers fill stroke" /><path
       inkscape:connector-curvature="0"
       id="path842"
       d="m -31.515328,81.928148 -0.485121,-0.433289 -0.04299,-4.842489 c -0.03707,-4.176151 -0.01054,-4.910875 0.192843,-5.339465 0.523384,-1.102949 1.999301,-1.102949 2.522684,0 0.203379,0.42859 0.229915,1.163314 0.192843,5.339465 l -0.04299,4.842489 -0.485121,0.433289 c -0.305016,0.272426 -0.64883,0.433288 -0.926076,0.433288 -0.277246,0 -0.62106,-0.160862 -0.926076,-0.433288 z"
       style="opacity:1;fill:#ffffff;fill-opacity:1;stroke:#ffffff;stroke-width:1.12287545;stroke-linecap:butt;stroke-linejoin:round;stroke-miterlimit:4;stroke-dasharray:none;stroke-opacity:1;paint-order:markers fill stroke" /></g></svg>